<?xml version="1.0" encoding="UTF-8" standalone="no"?>
<!DOCTYPE svg PUBLIC "-//W3C//DTD SVG 1.1//EN"
 "http://www.w3.org/Graphics/SVG/1.1/DTD/svg11.dtd">
<!-- Generated by graphviz version 14.1.1 (20251213.1925)
 -->
<!-- Title: G Pages: 1 -->
<svg width="1927pt" height="829pt"
 viewBox="0.00 0.00 1927.00 829.00" xmlns="http://www.w3.org/2000/svg" xmlns:xlink="http://www.w3.org/1999/xlink">
<g id="graph0" class="graph" transform="scale(1 1) rotate(0) translate(4 824.92)">
<title>G</title><style>.edge>path:hover{stroke-width:8}</style>
<polygon fill="white" stroke="none" points="-4,4 -4,-824.92 1922.81,-824.92 1922.81,4 -4,4"/>
<!-- adw -->
<g id="node1" class="node">
<title>adw</title><style>.edge>path:hover{stroke-width:8}</style>
<ellipse fill="#e50505" stroke="black" cx="112.85" cy="-417.88" rx="27" ry="18"/>
<text xml:space="preserve" text-anchor="middle" x="112.85" y="-414.01" font-family="Helvetica,sans-Serif" font-size="10.00" fill="#ffffff">adw</text>
</g>
<!-- adw_core -->
<g id="node2" class="node">
<title>adw_core</title><style>.edge>path:hover{stroke-width:8}</style>
<ellipse fill="#e72222" stroke="black" cx="143.85" cy="-501.4" rx="32.1" ry="18"/>
<text xml:space="preserve" text-anchor="middle" x="143.85" y="-497.53" font-family="Helvetica,sans-Serif" font-size="10.00" fill="#ffffff">adw.core</text>
</g>
<!-- adw_core&#45;&gt;adw -->
<g id="edge1" class="edge">
<title>adw_core&#45;&gt;adw</title><style>.edge>path:hover{stroke-width:8}</style>
<path fill="none" stroke="black" d="M137.42,-483.51C133.35,-472.8 127.98,-458.69 123.31,-446.39"/>
<polygon fill="#e72222" stroke="black" points="126.62,-445.27 119.8,-437.16 120.08,-447.76 126.62,-445.27"/>
</g>
<!-- adw_integrations_github -->
<g id="node11" class="node">
<title>adw_integrations_github</title><style>.edge>path:hover{stroke-width:8}</style>
<ellipse fill="#bc2f2f" stroke="black" cx="166.85" cy="-334.36" rx="48.97" ry="29.52"/>
<text xml:space="preserve" text-anchor="middle" x="166.85" y="-341.73" font-family="Helvetica,sans-Serif" font-size="10.00" fill="#ffffff">adw.</text>
<text xml:space="preserve" text-anchor="middle" x="166.85" y="-330.48" font-family="Helvetica,sans-Serif" font-size="10.00" fill="#ffffff">integrations.</text>
<text xml:space="preserve" text-anchor="middle" x="166.85" y="-319.23" font-family="Helvetica,sans-Serif" font-size="10.00" fill="#ffffff">github</text>
</g>
<!-- adw_core&#45;&gt;adw_integrations_github -->
<g id="edge2" class="edge">
<title>adw_core&#45;&gt;adw_integrations_github</title><style>.edge>path:hover{stroke-width:8}</style>
<path fill="none" stroke="black" d="M167.85,-416.88C162.07,-404.08 160.62,-388.96 161.01,-375.23"/>
<polygon fill="#e72222" stroke="black" points="164.48,-375.83 161.62,-365.63 157.49,-375.39 164.48,-375.83"/>
<path fill="none" stroke="black" d="M155.16,-484.31C165.46,-467.52 177.68,-440.66 167.85,-418.88"/>
</g>
<!-- adw_integrations_workflow_ops -->
<g id="node13" class="node">
<title>adw_integrations_workflow_ops</title><style>.edge>path:hover{stroke-width:8}</style>
<polygon fill="blue" stroke="black" points="189.85,-173.79 113.85,-173.79 113.85,-132.04 189.85,-132.04 189.85,-173.79"/>
<text xml:space="preserve" text-anchor="middle" x="151.85" y="-160.29" font-family="Helvetica,sans-Serif" font-size="10.00" fill="white">adw.</text>
<text xml:space="preserve" text-anchor="middle" x="151.85" y="-149.04" font-family="Helvetica,sans-Serif" font-size="10.00" fill="white">integrations.</text>
<text xml:space="preserve" text-anchor="middle" x="151.85" y="-137.79" font-family="Helvetica,sans-Serif" font-size="10.00" fill="white">workflow_ops</text>
</g>
<!-- adw_core&#45;&gt;adw_integrations_workflow_ops -->
<g id="edge3" class="edge">
<title>adw_core&#45;&gt;adw_integrations_workflow_ops</title><style>.edge>path:hover{stroke-width:8}</style>
<path fill="none" stroke="black" d="M243.85,-333.36C250.11,-277.59 246.6,-257.99 217.85,-209.79 211.43,-199.03 202.18,-189.35 192.63,-181.19"/>
<polygon fill="#e72222" stroke="black" points="195.01,-178.61 185.03,-175.08 190.63,-184.07 195.01,-178.61"/>
<path fill="none" stroke="black" d="M155.62,-484.2C167.85,-467.55 187.69,-441.02 205.85,-418.88"/>
<path fill="none" stroke="black" d="M205.85,-416.88C231.19,-385.97 242.08,-375.29 243.85,-335.36"/>
</g>
<!-- adw_integrations_worktree_ops -->
<g id="node14" class="node">
<title>adw_integrations_worktree_ops</title><style>.edge>path:hover{stroke-width:8}</style>
<ellipse fill="#9d4343" stroke="black" cx="324.85" cy="-239.32" rx="52.68" ry="29.52"/>
<text xml:space="preserve" text-anchor="middle" x="324.85" y="-246.69" font-family="Helvetica,sans-Serif" font-size="10.00" fill="#ffffff">adw.</text>
<text xml:space="preserve" text-anchor="middle" x="324.85" y="-235.44" font-family="Helvetica,sans-Serif" font-size="10.00" fill="#ffffff">integrations.</text>
<text xml:space="preserve" text-anchor="middle" x="324.85" y="-224.19" font-family="Helvetica,sans-Serif" font-size="10.00" fill="#ffffff">worktree_ops</text>
</g>
<!-- adw_core&#45;&gt;adw_integrations_worktree_ops -->
<g id="edge4" class="edge">
<title>adw_core&#45;&gt;adw_integrations_worktree_ops</title><style>.edge>path:hover{stroke-width:8}</style>
<path fill="none" stroke="black" d="M318.85,-333.36C320.56,-316.12 321.89,-297.03 322.85,-280.66"/>
<polygon fill="#e72222" stroke="black" points="326.34,-280.97 323.41,-270.79 319.35,-280.57 326.34,-280.97"/>
<path fill="none" stroke="black" d="M205.85,-416.88C245.11,-368.99 312.73,-396.98 318.85,-335.36"/>
</g>
<!-- adw_core_aea_data_types -->
<g id="node3" class="node">
<title>adw_core_aea_data_types</title><style>.edge>path:hover{stroke-width:8}</style>
<ellipse fill="#b34c4c" stroke="black" cx="253.85" cy="-501.4" rx="60.1" ry="29.52"/>
<text xml:space="preserve" text-anchor="middle" x="253.85" y="-508.78" font-family="Helvetica,sans-Serif" font-size="10.00" fill="#ffffff">adw.</text>
<text xml:space="preserve" text-anchor="middle" x="253.85" y="-497.53" font-family="Helvetica,sans-Serif" font-size="10.00" fill="#ffffff">core.</text>
<text xml:space="preserve" text-anchor="middle" x="253.85" y="-486.28" font-family="Helvetica,sans-Serif" font-size="10.00" fill="#ffffff">aea_data_types</text>
</g>
<!-- adw_core_agent -->
<g id="node4" class="node">
<title>adw_core_agent</title><style>.edge>path:hover{stroke-width:8}</style>
<ellipse fill="#a13535" stroke="black" cx="539.85" cy="-334.36" rx="48.08" ry="18"/>
<text xml:space="preserve" text-anchor="middle" x="539.85" y="-330.48" font-family="Helvetica,sans-Serif" font-size="10.00" fill="#ffffff">adw.core.agent</text>
</g>
<!-- adw_core_agent&#45;&gt;adw_integrations_workflow_ops -->
<g id="edge5" class="edge">
<title>adw_core_agent&#45;&gt;adw_integrations_workflow_ops</title><style>.edge>path:hover{stroke-width:8}</style>
<path fill="none" stroke="black" d="M545.66,-316.17C551.39,-295.74 557.02,-261.74 539.85,-240.32"/>
</g>
<!-- adw_core_config -->
<g id="node5" class="node">
<title>adw_core_config</title><style>.edge>path:hover{stroke-width:8}</style>
<ellipse fill="#f30c0c" stroke="black" cx="504.85" cy="-501.4" rx="29.88" ry="29.52"/>
<text xml:space="preserve" text-anchor="middle" x="504.85" y="-508.78" font-family="Helvetica,sans-Serif" font-size="10.00" fill="#ffffff">adw.</text>
<text xml:space="preserve" text-anchor="middle" x="504.85" y="-497.53" font-family="Helvetica,sans-Serif" font-size="10.00" fill="#ffffff">core.</text>
<text xml:space="preserve" text-anchor="middle" x="504.85" y="-486.28" font-family="Helvetica,sans-Serif" font-size="10.00" fill="#ffffff">config</text>
</g>
<!-- adw_core_config&#45;&gt;adw_core_agent -->
<g id="edge6" class="edge">
<title>adw_core_config&#45;&gt;adw_core_agent</title><style>.edge>path:hover{stroke-width:8}</style>
<path fill="none" stroke="black" d="M530.48,-485.82C551.6,-471.69 578.06,-448.14 577.85,-418.88"/>
<path fill="none" stroke="black" d="M577.85,-416.88C577.7,-397.03 568.32,-376.78 558.92,-361.44"/>
<polygon fill="#f30c0c" stroke="black" points="562.06,-359.84 553.67,-353.38 556.2,-363.67 562.06,-359.84"/>
</g>
<!-- adw_core_state -->
<g id="node7" class="node">
<title>adw_core_state</title><style>.edge>path:hover{stroke-width:8}</style>
<ellipse fill="#d02424" stroke="black" cx="318.85" cy="-417.88" rx="46.74" ry="18"/>
<text xml:space="preserve" text-anchor="middle" x="318.85" y="-414.01" font-family="Helvetica,sans-Serif" font-size="10.00" fill="#ffffff">adw.core.state</text>
</g>
<!-- adw_core_config&#45;&gt;adw_core_state -->
<g id="edge7" class="edge">
<title>adw_core_config&#45;&gt;adw_core_state</title><style>.edge>path:hover{stroke-width:8}</style>
<path fill="none" stroke="black" d="M477.8,-488.55C446.62,-474.88 395.07,-452.29 359.15,-436.55"/>
<polygon fill="#f30c0c" stroke="black" points="360.96,-433.52 350.4,-432.71 358.15,-439.93 360.96,-433.52"/>
</g>
<!-- adw_core_utils -->
<g id="node8" class="node">
<title>adw_core_utils</title><style>.edge>path:hover{stroke-width:8}</style>
<ellipse fill="#cc3333" stroke="black" cx="504.85" cy="-417.88" rx="44.53" ry="18"/>
<text xml:space="preserve" text-anchor="middle" x="504.85" y="-414.01" font-family="Helvetica,sans-Serif" font-size="10.00" fill="#ffffff">adw.core.utils</text>
</g>
<!-- adw_core_config&#45;&gt;adw_core_utils -->
<g id="edge8" class="edge">
<title>adw_core_config&#45;&gt;adw_core_utils</title><style>.edge>path:hover{stroke-width:8}</style>
<path fill="none" stroke="black" d="M504.85,-471.43C504.85,-463.74 504.85,-455.44 504.85,-447.76"/>
<polygon fill="#f30c0c" stroke="black" points="508.35,-447.88 504.85,-437.88 501.35,-447.88 508.35,-447.88"/>
</g>
<!-- adw_core_config&#45;&gt;adw_integrations_workflow_ops -->
<g id="edge9" class="edge">
<title>adw_core_config&#45;&gt;adw_integrations_workflow_ops</title><style>.edge>path:hover{stroke-width:8}</style>
<path fill="none" stroke="black" d="M531.93,-488.24C552.22,-477.56 578.66,-459.96 591.85,-435.88 619.84,-384.76 617.48,-359.35 596.85,-304.84 583.3,-269.05 563.78,-270.17 539.85,-240.32"/>
</g>
<!-- adw_core_config&#45;&gt;adw_integrations_worktree_ops -->
<g id="edge10" class="edge">
<title>adw_core_config&#45;&gt;adw_integrations_worktree_ops</title><style>.edge>path:hover{stroke-width:8}</style>
<path fill="none" stroke="black" d="M481.19,-482.69C430.94,-444.65 318.17,-356.83 318.85,-335.36"/>
</g>
<!-- adw_core_data_types -->
<g id="node6" class="node">
<title>adw_core_data_types</title><style>.edge>path:hover{stroke-width:8}</style>
<ellipse fill="#e61919" stroke="black" cx="376.85" cy="-501.4" rx="45.25" ry="29.52"/>
<text xml:space="preserve" text-anchor="middle" x="376.85" y="-508.78" font-family="Helvetica,sans-Serif" font-size="10.00" fill="#ffffff">adw.</text>
<text xml:space="preserve" text-anchor="middle" x="376.85" y="-497.53" font-family="Helvetica,sans-Serif" font-size="10.00" fill="#ffffff">core.</text>
<text xml:space="preserve" text-anchor="middle" x="376.85" y="-486.28" font-family="Helvetica,sans-Serif" font-size="10.00" fill="#ffffff">data_types</text>
</g>
<!-- adw_core_data_types&#45;&gt;adw_core_agent -->
<g id="edge11" class="edge">
<title>adw_core_data_types&#45;&gt;adw_core_agent</title><style>.edge>path:hover{stroke-width:8}</style>
<path fill="none" stroke="black" d="M393.37,-473.46C407.19,-452.14 428.24,-422.32 450.85,-399.88 467.42,-383.43 488.48,-367.97 505.95,-356.3"/>
<polygon fill="#e61919" stroke="black" points="507.51,-359.46 513.97,-351.06 503.68,-353.6 507.51,-359.46"/>
</g>
<!-- adw_core_data_types&#45;&gt;adw_core_state -->
<g id="edge12" class="edge">
<title>adw_core_data_types&#45;&gt;adw_core_state</title><style>.edge>path:hover{stroke-width:8}</style>
<path fill="none" stroke="black" d="M358.18,-474.16C351.49,-464.76 343.96,-454.18 337.3,-444.81"/>
<polygon fill="#e61919" stroke="black" points="340.26,-442.94 331.61,-436.82 334.55,-447 340.26,-442.94"/>
</g>
<!-- adw_core_data_types&#45;&gt;adw_integrations_github -->
<g id="edge13" class="edge">
<title>adw_core_data_types&#45;&gt;adw_integrations_github</title><style>.edge>path:hover{stroke-width:8}</style>
<path fill="none" stroke="black" d="M342.96,-481.47C336.38,-478.09 329.46,-474.74 322.85,-471.88 256.01,-443.01 197.81,-485.23 167.85,-418.88"/>
</g>
<!-- adw_core_data_types&#45;&gt;adw_integrations_workflow_ops -->
<g id="edge14" class="edge">
<title>adw_core_data_types&#45;&gt;adw_integrations_workflow_ops</title><style>.edge>path:hover{stroke-width:8}</style>
<path fill="none" stroke="black" d="M342.5,-481.88C309.91,-464.16 265.51,-439.6 262.85,-435.88 236.38,-398.91 241.84,-380.78 243.85,-335.36"/>
</g>
<!-- adw_core_state&#45;&gt;adw_core_agent -->
<g id="edge15" class="edge">
<title>adw_core_state&#45;&gt;adw_core_agent</title><style>.edge>path:hover{stroke-width:8}</style>
<path fill="none" stroke="black" d="M354.93,-406.09C387.42,-396.08 436.31,-380.3 477.85,-363.88 485.41,-360.89 493.38,-357.45 500.98,-354.02"/>
<polygon fill="#d02424" stroke="black" points="502.42,-357.21 510.05,-349.86 499.5,-350.85 502.42,-357.21"/>
</g>
<!-- adw_core_state&#45;&gt;adw_integrations_workflow_ops -->
<g id="edge16" class="edge">
<title>adw_core_state&#45;&gt;adw_integrations_workflow_ops</title><style>.edge>path:hover{stroke-width:8}</style>
<path fill="none" stroke="black" d="M539.85,-238.32C497.98,-186.11 296.45,-164.54 201.51,-157.17"/>
<polygon fill="#d02424" stroke="black" points="201.95,-153.7 191.72,-156.44 201.43,-160.68 201.95,-153.7"/>
<path fill="none" stroke="black" d="M463.85,-333.36C472.64,-320.92 473.56,-316.91 482.85,-304.84 506.17,-274.51 563.78,-270.17 539.85,-240.32"/>
<path fill="none" stroke="black" d="M355.38,-406.34C389.06,-394.65 437.66,-372.37 463.85,-335.36"/>
</g>
<!-- adw_core_state&#45;&gt;adw_integrations_worktree_ops -->
<g id="edge17" class="edge">
<title>adw_core_state&#45;&gt;adw_integrations_worktree_ops</title><style>.edge>path:hover{stroke-width:8}</style>
<path fill="none" stroke="black" d="M318.53,-399.38C318.3,-382.87 318.15,-357.43 318.85,-335.36"/>
</g>
<!-- adw_core_utils&#45;&gt;adw_core_agent -->
<g id="edge18" class="edge">
<title>adw_core_utils&#45;&gt;adw_core_agent</title><style>.edge>path:hover{stroke-width:8}</style>
<path fill="none" stroke="black" d="M512.1,-399.99C516.71,-389.24 522.8,-375.07 528.09,-362.74"/>
<polygon fill="#cc3333" stroke="black" points="531.16,-364.47 531.89,-353.9 524.72,-361.71 531.16,-364.47"/>
</g>
<!-- adw_core_utils&#45;&gt;adw_integrations_workflow_ops -->
<g id="edge19" class="edge">
<title>adw_core_utils&#45;&gt;adw_integrations_workflow_ops</title><style>.edge>path:hover{stroke-width:8}</style>
<path fill="none" stroke="black" d="M486.95,-401.08C469.89,-384.06 448.84,-356.57 463.85,-335.36"/>
</g>
<!-- adw_integrations -->
<g id="node9" class="node">
<title>adw_integrations</title><style>.edge>path:hover{stroke-width:8}</style>
<ellipse fill="#e72222" stroke="black" cx="46.85" cy="-501.4" rx="46.85" ry="21.57"/>
<text xml:space="preserve" text-anchor="middle" x="46.85" y="-503.15" font-family="Helvetica,sans-Serif" font-size="10.00" fill="#ffffff">adw.</text>
<text xml:space="preserve" text-anchor="middle" x="46.85" y="-491.9" font-family="Helvetica,sans-Serif" font-size="10.00" fill="#ffffff">integrations</text>
</g>
<!-- adw_integrations&#45;&gt;adw -->
<g id="edge20" class="edge">
<title>adw_integrations&#45;&gt;adw</title><style>.edge>path:hover{stroke-width:8}</style>
<path fill="none" stroke="black" d="M62.82,-480.67C72.06,-469.25 83.76,-454.81 93.52,-442.75"/>
<polygon fill="#e72222" stroke="black" points="96,-445.25 99.58,-435.27 90.56,-440.84 96,-445.25"/>
</g>
<!-- adw_workflows_sdlc -->
<g id="node23" class="node">
<title>adw_workflows_sdlc</title><style>.edge>path:hover{stroke-width:8}</style>
<ellipse fill="#a44646" stroke="black" cx="57.85" cy="-29.52" rx="44.72" ry="29.52"/>
<text xml:space="preserve" text-anchor="middle" x="57.85" y="-36.9" font-family="Helvetica,sans-Serif" font-size="10.00" fill="#ffffff">adw.</text>
<text xml:space="preserve" text-anchor="middle" x="57.85" y="-25.65" font-family="Helvetica,sans-Serif" font-size="10.00" fill="#ffffff">workflows.</text>
<text xml:space="preserve" text-anchor="middle" x="57.85" y="-14.4" font-family="Helvetica,sans-Serif" font-size="10.00" fill="#ffffff">sdlc</text>
</g>
<!-- adw_integrations&#45;&gt;adw_workflows_sdlc -->
<g id="edge21" class="edge">
<title>adw_integrations&#45;&gt;adw_workflows_sdlc</title><style>.edge>path:hover{stroke-width:8}</style>
<path fill="none" stroke="black" d="M57.85,-95.04C55.1,-87.37 53.92,-78.85 53.63,-70.58"/>
<polygon fill="#e72222" stroke="black" points="57.13,-70.73 53.73,-60.69 50.13,-70.66 57.13,-70.73"/>
<path fill="none" stroke="black" d="M49.13,-479.59C52.35,-448.32 57.85,-387.34 57.85,-335.36 57.85,-335.36 57.85,-335.36 57.85,-238.32 57.85,-175.08 79.12,-155.59 57.85,-96.04"/>
</g>
<!-- adw_integrations_git_ops -->
<g id="node10" class="node">
<title>adw_integrations_git_ops</title><style>.edge>path:hover{stroke-width:8}</style>
<polygon fill="blue" stroke="black" points="208.47,-260.19 139.22,-260.19 139.22,-218.44 208.47,-218.44 208.47,-260.19"/>
<text xml:space="preserve" text-anchor="middle" x="173.85" y="-246.69" font-family="Helvetica,sans-Serif" font-size="10.00" fill="white">adw.</text>
<text xml:space="preserve" text-anchor="middle" x="173.85" y="-235.44" font-family="Helvetica,sans-Serif" font-size="10.00" fill="white">integrations.</text>
<text xml:space="preserve" text-anchor="middle" x="173.85" y="-224.19" font-family="Helvetica,sans-Serif" font-size="10.00" fill="white">git_ops</text>
</g>
<!-- adw_integrations_git_ops&#45;&gt;adw_integrations_workflow_ops -->
<g id="edge22" class="edge">
<title>adw_integrations_git_ops&#45;&gt;adw_integrations_workflow_ops</title><style>.edge>path:hover{stroke-width:8}</style>
<path fill="none" stroke="black" d="M165.76,-207.3C163.86,-200.02 161.84,-192.26 159.94,-184.98"/>
<polygon fill="blue" stroke="black" points="162.34,-208.06 168.25,-216.85 169.11,-206.29 162.34,-208.06"/>
<polygon fill="blue" stroke="black" points="163.39,-184.33 157.48,-175.53 156.62,-186.09 163.39,-184.33"/>
</g>
<!-- adw_integrations_github&#45;&gt;adw_integrations_git_ops -->
<g id="edge23" class="edge">
<title>adw_integrations_github&#45;&gt;adw_integrations_git_ops</title><style>.edge>path:hover{stroke-width:8}</style>
<path fill="none" stroke="black" d="M169.02,-304.43C169.8,-294.12 170.68,-282.46 171.47,-271.93"/>
<polygon fill="#bc2f2f" stroke="black" points="174.94,-272.41 172.2,-262.18 167.96,-271.89 174.94,-272.41"/>
</g>
<!-- adw_integrations_github&#45;&gt;adw_integrations_workflow_ops -->
<g id="edge24" class="edge">
<title>adw_integrations_github&#45;&gt;adw_integrations_workflow_ops</title><style>.edge>path:hover{stroke-width:8}</style>
<path fill="none" stroke="black" d="M147.45,-306.8C140.45,-295.65 133.4,-282.19 129.85,-268.84 123.09,-243.48 124.95,-235.57 129.85,-209.79 131.45,-201.34 134.3,-192.54 137.44,-184.48"/>
<polygon fill="#bc2f2f" stroke="black" points="140.58,-186.04 141.21,-175.46 134.12,-183.34 140.58,-186.04"/>
</g>
<!-- adw_integrations_r2_uploader -->
<g id="node12" class="node">
<title>adw_integrations_r2_uploader</title><style>.edge>path:hover{stroke-width:8}</style>
<ellipse fill="#9d4343" stroke="black" cx="1869.85" cy="-501.4" rx="48.97" ry="29.52"/>
<text xml:space="preserve" text-anchor="middle" x="1869.85" y="-508.78" font-family="Helvetica,sans-Serif" font-size="10.00" fill="#ffffff">adw.</text>
<text xml:space="preserve" text-anchor="middle" x="1869.85" y="-497.53" font-family="Helvetica,sans-Serif" font-size="10.00" fill="#ffffff">integrations.</text>
<text xml:space="preserve" text-anchor="middle" x="1869.85" y="-486.28" font-family="Helvetica,sans-Serif" font-size="10.00" fill="#ffffff">r2_uploader</text>
</g>
<!-- adw_integrations_workflow_ops&#45;&gt;adw_workflows_sdlc -->
<g id="edge26" class="edge">
<title>adw_integrations_workflow_ops&#45;&gt;adw_workflows_sdlc</title><style>.edge>path:hover{stroke-width:8}</style>
<path fill="none" stroke="black" d="M113.48,-142.08C91.38,-133.97 66.34,-119.82 57.85,-96.04"/>
</g>
<!-- adw_triggers_adw_trigger_aea_server -->
<g id="node15" class="node">
<title>adw_triggers_adw_trigger_aea_server</title><style>.edge>path:hover{stroke-width:8}</style>
<ellipse fill="#883a3a" stroke="black" cx="727.85" cy="-334.36" rx="84.5" ry="29.52"/>
<text xml:space="preserve" text-anchor="middle" x="727.85" y="-341.73" font-family="Helvetica,sans-Serif" font-size="10.00" fill="#ffffff">adw.</text>
<text xml:space="preserve" text-anchor="middle" x="727.85" y="-330.48" font-family="Helvetica,sans-Serif" font-size="10.00" fill="#ffffff">triggers.</text>
<text xml:space="preserve" text-anchor="middle" x="727.85" y="-319.23" font-family="Helvetica,sans-Serif" font-size="10.00" fill="#ffffff">adw_trigger_aea_server</text>
</g>
<!-- adw_triggers_trigger_cron -->
<g id="node16" class="node">
<title>adw_triggers_trigger_cron</title><style>.edge>path:hover{stroke-width:8}</style>
<ellipse fill="#ac4949" stroke="black" cx="966.85" cy="-501.4" rx="47.38" ry="29.52"/>
<text xml:space="preserve" text-anchor="middle" x="966.85" y="-508.78" font-family="Helvetica,sans-Serif" font-size="10.00" fill="#ffffff">adw.</text>
<text xml:space="preserve" text-anchor="middle" x="966.85" y="-497.53" font-family="Helvetica,sans-Serif" font-size="10.00" fill="#ffffff">triggers.</text>
<text xml:space="preserve" text-anchor="middle" x="966.85" y="-486.28" font-family="Helvetica,sans-Serif" font-size="10.00" fill="#ffffff">trigger_cron</text>
</g>
<!-- adw_triggers_trigger_webhook -->
<g id="node17" class="node">
<title>adw_triggers_trigger_webhook</title><style>.edge>path:hover{stroke-width:8}</style>
<ellipse fill="#9d4343" stroke="black" cx="891.85" cy="-334.36" rx="61.7" ry="29.52"/>
<text xml:space="preserve" text-anchor="middle" x="891.85" y="-341.73" font-family="Helvetica,sans-Serif" font-size="10.00" fill="#ffffff">adw.</text>
<text xml:space="preserve" text-anchor="middle" x="891.85" y="-330.48" font-family="Helvetica,sans-Serif" font-size="10.00" fill="#ffffff">triggers.</text>
<text xml:space="preserve" text-anchor="middle" x="891.85" y="-319.23" font-family="Helvetica,sans-Serif" font-size="10.00" fill="#ffffff">trigger_webhook</text>
</g>
<!-- adw_workflows_build -->
<g id="node18" class="node">
<title>adw_workflows_build</title><style>.edge>path:hover{stroke-width:8}</style>
<ellipse fill="#b34c4c" stroke="black" cx="1650.85" cy="-501.4" rx="44.72" ry="29.52"/>
<text xml:space="preserve" text-anchor="middle" x="1650.85" y="-508.78" font-family="Helvetica,sans-Serif" font-size="10.00" fill="#ffffff">adw.</text>
<text xml:space="preserve" text-anchor="middle" x="1650.85" y="-497.53" font-family="Helvetica,sans-Serif" font-size="10.00" fill="#ffffff">workflows.</text>
<text xml:space="preserve" text-anchor="middle" x="1650.85" y="-486.28" font-family="Helvetica,sans-Serif" font-size="10.00" fill="#ffffff">build</text>
</g>
<!-- adw_workflows_document -->
<g id="node19" class="node">
<title>adw_workflows_document</title><style>.edge>path:hover{stroke-width:8}</style>
<ellipse fill="#b34c4c" stroke="black" cx="1757.85" cy="-501.4" rx="44.72" ry="29.52"/>
<text xml:space="preserve" text-anchor="middle" x="1757.85" y="-508.78" font-family="Helvetica,sans-Serif" font-size="10.00" fill="#ffffff">adw.</text>
<text xml:space="preserve" text-anchor="middle" x="1757.85" y="-497.53" font-family="Helvetica,sans-Serif" font-size="10.00" fill="#ffffff">workflows.</text>
<text xml:space="preserve" text-anchor="middle" x="1757.85" y="-486.28" font-family="Helvetica,sans-Serif" font-size="10.00" fill="#ffffff">document</text>
</g>
<!-- adw_workflows_patch -->
<g id="node20" class="node">
<title>adw_workflows_patch</title><style>.edge>path:hover{stroke-width:8}</style>
<ellipse fill="#ac4949" stroke="black" cx="1076.85" cy="-501.4" rx="44.72" ry="29.52"/>
<text xml:space="preserve" text-anchor="middle" x="1076.85" y="-508.78" font-family="Helvetica,sans-Serif" font-size="10.00" fill="#ffffff">adw.</text>
<text xml:space="preserve" text-anchor="middle" x="1076.85" y="-497.53" font-family="Helvetica,sans-Serif" font-size="10.00" fill="#ffffff">workflows.</text>
<text xml:space="preserve" text-anchor="middle" x="1076.85" y="-486.28" font-family="Helvetica,sans-Serif" font-size="10.00" fill="#ffffff">patch</text>
</g>
<!-- adw_workflows_plan -->
<g id="node21" class="node">
<title>adw_workflows_plan</title><style>.edge>path:hover{stroke-width:8}</style>
<ellipse fill="#b34c4c" stroke="black" cx="1183.85" cy="-501.4" rx="44.72" ry="29.52"/>
<text xml:space="preserve" text-anchor="middle" x="1183.85" y="-508.78" font-family="Helvetica,sans-Serif" font-size="10.00" fill="#ffffff">adw.</text>
<text xml:space="preserve" text-anchor="middle" x="1183.85" y="-497.53" font-family="Helvetica,sans-Serif" font-size="10.00" fill="#ffffff">workflows.</text>
<text xml:space="preserve" text-anchor="middle" x="1183.85" y="-486.28" font-family="Helvetica,sans-Serif" font-size="10.00" fill="#ffffff">plan</text>
</g>
<!-- adw_workflows_review -->
<g id="node22" class="node">
<title>adw_workflows_review</title><style>.edge>path:hover{stroke-width:8}</style>
<ellipse fill="#ac4949" stroke="black" cx="1290.85" cy="-501.4" rx="44.72" ry="29.52"/>
<text xml:space="preserve" text-anchor="middle" x="1290.85" y="-508.78" font-family="Helvetica,sans-Serif" font-size="10.00" fill="#ffffff">adw.</text>
<text xml:space="preserve" text-anchor="middle" x="1290.85" y="-497.53" font-family="Helvetica,sans-Serif" font-size="10.00" fill="#ffffff">workflows.</text>
<text xml:space="preserve" text-anchor="middle" x="1290.85" y="-486.28" font-family="Helvetica,sans-Serif" font-size="10.00" fill="#ffffff">review</text>
</g>
<!-- adw_workflows_ship -->
<g id="node24" class="node">
<title>adw_workflows_ship</title><style>.edge>path:hover{stroke-width:8}</style>
<ellipse fill="#b34c4c" stroke="black" cx="1397.85" cy="-501.4" rx="44.72" ry="29.52"/>
<text xml:space="preserve" text-anchor="middle" x="1397.85" y="-508.78" font-family="Helvetica,sans-Serif" font-size="10.00" fill="#ffffff">adw.</text>
<text xml:space="preserve" text-anchor="middle" x="1397.85" y="-497.53" font-family="Helvetica,sans-Serif" font-size="10.00" fill="#ffffff">workflows.</text>
<text xml:space="preserve" text-anchor="middle" x="1397.85" y="-486.28" font-family="Helvetica,sans-Serif" font-size="10.00" fill="#ffffff">ship</text>
</g>
<!-- adw_workflows_test -->
<g id="node25" class="node">
<title>adw_workflows_test</title><style>.edge>path:hover{stroke-width:8}</style>
<ellipse fill="#b34c4c" stroke="black" cx="1504.85" cy="-501.4" rx="44.72" ry="29.52"/>
<text xml:space="preserve" text-anchor="middle" x="1504.85" y="-508.78" font-family="Helvetica,sans-Serif" font-size="10.00" fill="#ffffff">adw.</text>
<text xml:space="preserve" text-anchor="middle" x="1504.85" y="-497.53" font-family="Helvetica,sans-Serif" font-size="10.00" fill="#ffffff">workflows.</text>
<text xml:space="preserve" text-anchor="middle" x="1504.85" y="-486.28" font-family="Helvetica,sans-Serif" font-size="10.00" fill="#ffffff">test</text>
</g>
<!-- aiosqlite -->
<g id="node26" class="node">
<title>aiosqlite</title><style>.edge>path:hover{stroke-width:8}</style>
<polygon fill="#ac7a49" stroke="black" points="753.85,-602.92 750.85,-606.92 729.85,-606.92 726.85,-602.92 699.85,-602.92 699.85,-566.92 753.85,-566.92 753.85,-602.92"/>
<text xml:space="preserve" text-anchor="middle" x="726.85" y="-581.05" font-family="Helvetica,sans-Serif" font-size="10.00" fill="#000000">aiosqlite</text>
</g>
<!-- aiosqlite&#45;&gt;adw_triggers_adw_trigger_aea_server -->
<g id="edge27" class="edge">
<title>aiosqlite&#45;&gt;adw_triggers_adw_trigger_aea_server</title><style>.edge>path:hover{stroke-width:8}</style>
<path fill="none" stroke="black" d="M726.92,-566.45C727.07,-527.12 727.46,-430.81 727.68,-375.74"/>
<polygon fill="#ac7a49" stroke="black" points="731.18,-375.85 727.72,-365.84 724.18,-375.82 731.18,-375.85"/>
</g>
<!-- boto3 -->
<g id="node27" class="node">
<title>boto3</title><style>.edge>path:hover{stroke-width:8}</style>
<polygon fill="blue" stroke="black" points="1896.85,-711.92 1893.85,-715.92 1872.85,-715.92 1869.85,-711.92 1842.85,-711.92 1842.85,-675.92 1896.85,-675.92 1896.85,-711.92"/>
<text xml:space="preserve" text-anchor="middle" x="1869.85" y="-690.05" font-family="Helvetica,sans-Serif" font-size="10.00" fill="white">boto3</text>
</g>
<!-- boto3&#45;&gt;adw_integrations_r2_uploader -->
<g id="edge28" class="edge">
<title>boto3&#45;&gt;adw_integrations_r2_uploader</title><style>.edge>path:hover{stroke-width:8}</style>
<path fill="none" stroke="black" d="M1867.83,-675.5C1867.12,-665.05 1867.08,-651.56 1869.85,-639.92"/>
</g>
<!-- botocore -->
<g id="node28" class="node">
<title>botocore</title><style>.edge>path:hover{stroke-width:8}</style>
<polygon fill="#85f910" stroke="black" points="1841.85,-820.92 1838.85,-824.92 1817.85,-824.92 1814.85,-820.92 1787.85,-820.92 1787.85,-784.92 1841.85,-784.92 1841.85,-820.92"/>
<text xml:space="preserve" text-anchor="middle" x="1814.85" y="-799.05" font-family="Helvetica,sans-Serif" font-size="10.00" fill="#000000">botocore</text>
</g>
<!-- botocore&#45;&gt;adw_integrations_r2_uploader -->
<g id="edge29" class="edge">
<title>botocore&#45;&gt;adw_integrations_r2_uploader</title><style>.edge>path:hover{stroke-width:8}</style>
<path fill="none" stroke="black" d="M1814.85,-747.92C1822.51,-715.73 1817.35,-704.62 1833.85,-675.92 1845.12,-656.31 1864.61,-661.94 1869.85,-639.92"/>
<path fill="none" stroke="black" d="M1869.85,-638.92C1875.86,-606.97 1875.42,-570.05 1873.73,-542.67"/>
<polygon fill="#85f910" stroke="black" points="1877.22,-542.42 1873.02,-532.7 1870.24,-542.92 1877.22,-542.42"/>
<path fill="none" stroke="black" d="M1812.51,-784.89C1811.63,-774.33 1811.52,-760.61 1814.85,-748.92"/>
</g>
<!-- botocore&#45;&gt;boto3 -->
<g id="edge30" class="edge">
<title>botocore&#45;&gt;boto3</title><style>.edge>path:hover{stroke-width:8}</style>
<path fill="none" stroke="black" d="M1814.85,-747.92C1817.61,-736.29 1825.26,-726.28 1834,-718.18"/>
<polygon fill="#85f910" stroke="black" points="1835.98,-721.08 1841.43,-711.99 1831.5,-715.71 1835.98,-721.08"/>
</g>
<!-- dotenv -->
<g id="node29" class="node">
<title>dotenv</title><style>.edge>path:hover{stroke-width:8}</style>
<polygon fill="#06ef06" stroke="black" points="1054.85,-711.92 1051.85,-715.92 1030.85,-715.92 1027.85,-711.92 1000.85,-711.92 1000.85,-675.92 1054.85,-675.92 1054.85,-711.92"/>
<text xml:space="preserve" text-anchor="middle" x="1027.85" y="-690.05" font-family="Helvetica,sans-Serif" font-size="10.00" fill="#000000">dotenv</text>
</g>
<!-- dotenv&#45;&gt;adw_core_agent -->
<g id="edge31" class="edge">
<title>dotenv&#45;&gt;adw_core_agent</title><style>.edge>path:hover{stroke-width:8}</style>
<path fill="none" stroke="black" d="M1000.61,-679.7C997.35,-678.33 994.05,-677.04 990.85,-675.92 861.24,-630.85 801.77,-683.7 690.85,-602.92 613.26,-546.42 578.56,-514.86 577.85,-418.88"/>
</g>
<!-- dotenv&#45;&gt;adw_triggers_adw_trigger_aea_server -->
<g id="edge32" class="edge">
<title>dotenv&#45;&gt;adw_triggers_adw_trigger_aea_server</title><style>.edge>path:hover{stroke-width:8}</style>
<path fill="none" stroke="black" d="M1021.69,-675.68C1018.78,-665.29 1016.42,-651.81 1018.85,-639.92"/>
<path fill="none" stroke="black" d="M1018.85,-638.92C1032.22,-573.44 919.32,-650.96 872.85,-602.92 808.71,-536.63 882.52,-475.61 829.85,-399.88 819.59,-385.14 804.77,-373.03 789.59,-363.45"/>
<polygon fill="#06ef06" stroke="black" points="791.81,-360.7 781.43,-358.59 788.22,-366.72 791.81,-360.7"/>
</g>
<!-- dotenv&#45;&gt;adw_triggers_trigger_cron -->
<g id="edge33" class="edge">
<title>dotenv&#45;&gt;adw_triggers_trigger_cron</title><style>.edge>path:hover{stroke-width:8}</style>
<path fill="none" stroke="black" d="M1397.85,-583.92C1445.43,-514.5 1103.1,-556.26 1022.85,-530.92 1019.14,-529.76 1015.39,-528.36 1011.67,-526.83"/>
<polygon fill="#06ef06" stroke="black" points="1013.28,-523.71 1002.72,-522.82 1010.42,-530.1 1013.28,-523.71"/>
<path fill="none" stroke="black" d="M1018.85,-638.92C1035.86,-555.6 1349.77,-656.07 1397.85,-585.92"/>
</g>
<!-- dotenv&#45;&gt;adw_triggers_trigger_webhook -->
<g id="edge34" class="edge">
<title>dotenv&#45;&gt;adw_triggers_trigger_webhook</title><style>.edge>path:hover{stroke-width:8}</style>
<path fill="none" stroke="black" d="M1397.85,-583.92C1440.44,-521.79 1514.68,-591.95 1558.85,-530.92 1574.23,-509.66 1575.44,-492.21 1558.85,-471.88 1484.39,-380.64 1121.73,-348.72 964.64,-339.06"/>
<polygon fill="#06ef06" stroke="black" points="964.94,-335.57 954.75,-338.47 964.52,-342.56 964.94,-335.57"/>
</g>
<!-- dotenv&#45;&gt;adw_workflows_build -->
<g id="edge35" class="edge">
<title>dotenv&#45;&gt;adw_workflows_build</title><style>.edge>path:hover{stroke-width:8}</style>
<path fill="none" stroke="black" d="M1397.85,-583.92C1448.38,-510.2 1508.15,-562.28 1591.85,-530.92 1596.47,-529.19 1601.21,-527.23 1605.91,-525.16"/>
<polygon fill="#06ef06" stroke="black" points="1607.04,-528.5 1614.68,-521.15 1604.13,-522.13 1607.04,-528.5"/>
</g>
<!-- dotenv&#45;&gt;adw_workflows_document -->
<g id="edge36" class="edge">
<title>dotenv&#45;&gt;adw_workflows_document</title><style>.edge>path:hover{stroke-width:8}</style>
<path fill="none" stroke="black" d="M1397.85,-583.92C1436.99,-526.82 1639.4,-553.51 1704.85,-530.92 1708.25,-529.75 1711.71,-528.37 1715.13,-526.87"/>
<polygon fill="#06ef06" stroke="black" points="1716.34,-530.17 1723.86,-522.71 1713.33,-523.85 1716.34,-530.17"/>
</g>
<!-- dotenv&#45;&gt;adw_workflows_patch -->
<g id="edge37" class="edge">
<title>dotenv&#45;&gt;adw_workflows_patch</title><style>.edge>path:hover{stroke-width:8}</style>
<path fill="none" stroke="black" d="M1397.85,-583.92C1466.49,-483.77 1244.13,-571.93 1129.85,-530.92 1126.45,-529.71 1123.01,-528.3 1119.6,-526.78"/>
<polygon fill="#06ef06" stroke="black" points="1121.4,-523.76 1110.87,-522.58 1118.37,-530.07 1121.4,-523.76"/>
</g>
<!-- dotenv&#45;&gt;adw_workflows_plan -->
<g id="edge38" class="edge">
<title>dotenv&#45;&gt;adw_workflows_plan</title><style>.edge>path:hover{stroke-width:8}</style>
<path fill="none" stroke="black" d="M1397.85,-583.92C1440.44,-521.79 1306.06,-560.67 1236.85,-530.92 1233.73,-529.58 1230.55,-528.13 1227.38,-526.6"/>
<polygon fill="#06ef06" stroke="black" points="1229.2,-523.6 1218.69,-522.24 1226.06,-529.86 1229.2,-523.6"/>
</g>
<!-- dotenv&#45;&gt;adw_workflows_review -->
<g id="edge39" class="edge">
<title>dotenv&#45;&gt;adw_workflows_review</title><style>.edge>path:hover{stroke-width:8}</style>
<path fill="none" stroke="black" d="M1397.85,-583.92C1402.85,-576.63 1364.43,-549.4 1332.25,-528.4"/>
<polygon fill="#06ef06" stroke="black" points="1334.52,-525.7 1324.22,-523.21 1330.72,-531.58 1334.52,-525.7"/>
</g>
<!-- dotenv&#45;&gt;adw_workflows_ship -->
<g id="edge40" class="edge">
<title>dotenv&#45;&gt;adw_workflows_ship</title><style>.edge>path:hover{stroke-width:8}</style>
<path fill="none" stroke="black" d="M1397.85,-583.92C1406.12,-571.86 1407.71,-556.24 1406.67,-541.92"/>
<polygon fill="#06ef06" stroke="black" points="1410.18,-541.81 1405.52,-532.29 1403.23,-542.64 1410.18,-541.81"/>
</g>
<!-- dotenv&#45;&gt;adw_workflows_test -->
<g id="edge41" class="edge">
<title>dotenv&#45;&gt;adw_workflows_test</title><style>.edge>path:hover{stroke-width:8}</style>
<path fill="none" stroke="black" d="M1397.85,-583.92C1413.93,-560.45 1438.94,-540.86 1460.74,-526.77"/>
<polygon fill="#06ef06" stroke="black" points="1462.57,-529.75 1469.2,-521.48 1458.87,-523.81 1462.57,-529.75"/>
</g>
<!-- uvicorn -->
<g id="node35" class="node">
<title>uvicorn</title><style>.edge>path:hover{stroke-width:8}</style>
<polygon fill="blue" stroke="black" points="935.85,-602.92 932.85,-606.92 911.85,-606.92 908.85,-602.92 881.85,-602.92 881.85,-566.92 935.85,-566.92 935.85,-602.92"/>
<text xml:space="preserve" text-anchor="middle" x="908.85" y="-581.05" font-family="Helvetica,sans-Serif" font-size="10.00" fill="white">uvicorn</text>
</g>
<!-- dotenv&#45;&gt;uvicorn -->
<g id="edge42" class="edge">
<title>dotenv&#45;&gt;uvicorn</title><style>.edge>path:hover{stroke-width:8}</style>
<path fill="none" stroke="black" d="M1018.85,-638.92C1025.57,-605.99 981.76,-593.52 947.44,-588.8"/>
<polygon fill="#06ef06" stroke="black" points="948.09,-585.35 937.75,-587.65 947.27,-592.3 948.09,-585.35"/>
</g>
<!-- fastapi -->
<g id="node30" class="node">
<title>fastapi</title><style>.edge>path:hover{stroke-width:8}</style>
<polygon fill="blue" stroke="black" points="825.85,-602.92 822.85,-606.92 801.85,-606.92 798.85,-602.92 771.85,-602.92 771.85,-566.92 825.85,-566.92 825.85,-602.92"/>
<text xml:space="preserve" text-anchor="middle" x="798.85" y="-581.05" font-family="Helvetica,sans-Serif" font-size="10.00" fill="white">fastapi</text>
</g>
<!-- fastapi&#45;&gt;adw_triggers_adw_trigger_aea_server -->
<g id="edge43" class="edge">
<title>fastapi&#45;&gt;adw_triggers_adw_trigger_aea_server</title><style>.edge>path:hover{stroke-width:8}</style>
<path fill="none" stroke="black" d="M802.22,-566.63C807.71,-536.64 817.79,-473 815.85,-418.88"/>
<path fill="none" stroke="black" d="M815.85,-416.88C815.65,-395.69 801.7,-378.46 784.97,-365.4"/>
<polygon fill="blue" stroke="black" points="787.41,-362.84 777.25,-359.83 783.32,-368.52 787.41,-362.84"/>
</g>
<!-- fastapi&#45;&gt;adw_triggers_trigger_webhook -->
<g id="edge44" class="edge">
<title>fastapi&#45;&gt;adw_triggers_trigger_webhook</title><style>.edge>path:hover{stroke-width:8}</style>
<path fill="none" stroke="black" d="M815.85,-416.88C815.65,-396.15 828.94,-378.49 844.45,-364.96"/>
<polygon fill="blue" stroke="black" points="846.46,-367.83 852.05,-358.83 842.07,-362.39 846.46,-367.83"/>
</g>
<!-- pydantic -->
<g id="node31" class="node">
<title>pydantic</title><style>.edge>path:hover{stroke-width:8}</style>
<polygon fill="blue" stroke="black" points="403.85,-711.92 400.85,-715.92 379.85,-715.92 376.85,-711.92 349.85,-711.92 349.85,-675.92 403.85,-675.92 403.85,-711.92"/>
<text xml:space="preserve" text-anchor="middle" x="376.85" y="-690.05" font-family="Helvetica,sans-Serif" font-size="10.00" fill="white">pydantic</text>
</g>
<!-- pydantic&#45;&gt;adw_core_aea_data_types -->
<g id="edge45" class="edge">
<title>pydantic&#45;&gt;adw_core_aea_data_types</title><style>.edge>path:hover{stroke-width:8}</style>
<path fill="none" stroke="black" d="M380.07,-675.73C383.39,-654.15 386.82,-616.28 376.85,-585.92"/>
<path fill="none" stroke="black" d="M376.85,-583.92C370.42,-567.7 335.99,-545.65 305.19,-528.57"/>
<polygon fill="blue" stroke="black" points="307.14,-525.65 296.68,-523.94 303.79,-531.8 307.14,-525.65"/>
</g>
<!-- pydantic&#45;&gt;adw_core_data_types -->
<g id="edge46" class="edge">
<title>pydantic&#45;&gt;adw_core_data_types</title><style>.edge>path:hover{stroke-width:8}</style>
<path fill="none" stroke="black" d="M376.85,-583.92C372.54,-570.82 371.51,-555.88 371.89,-542.4"/>
<polygon fill="blue" stroke="black" points="375.38,-542.7 372.45,-532.52 368.39,-542.31 375.38,-542.7"/>
</g>
<!-- pydantic&#45;&gt;fastapi -->
<g id="edge47" class="edge">
<title>pydantic&#45;&gt;fastapi</title><style>.edge>path:hover{stroke-width:8}</style>
<path fill="none" stroke="black" d="M512.85,-638.92C610.82,-591.98 652.62,-632.46 760.65,-602.97"/>
<polygon fill="blue" stroke="black" points="761.57,-606.35 770.21,-600.21 759.63,-599.62 761.57,-606.35"/>
<path fill="none" stroke="black" d="M404.24,-679.66C407.13,-678.36 410.04,-677.09 412.85,-675.92 456.47,-657.82 470.25,-660.34 512.85,-639.92"/>
</g>
<!-- pydantic_core -->
<g id="node32" class="node">
<title>pydantic_core</title><style>.edge>path:hover{stroke-width:8}</style>
<polygon fill="blue" stroke="black" points="415.22,-820.92 412.22,-824.92 391.22,-824.92 388.22,-820.92 338.47,-820.92 338.47,-784.92 415.22,-784.92 415.22,-820.92"/>
<text xml:space="preserve" text-anchor="middle" x="376.85" y="-799.05" font-family="Helvetica,sans-Serif" font-size="10.00" fill="white">pydantic_core</text>
</g>
<!-- pydantic_core&#45;&gt;pydantic -->
<g id="edge48" class="edge">
<title>pydantic_core&#45;&gt;pydantic</title><style>.edge>path:hover{stroke-width:8}</style>
<path fill="none" stroke="black" d="M376.85,-784.73C376.85,-768.2 376.85,-742.9 376.85,-723.36"/>
<polygon fill="blue" stroke="black" points="380.35,-723.59 376.85,-713.59 373.35,-723.59 380.35,-723.59"/>
</g>
<!-- schedule -->
<g id="node33" class="node">
<title>schedule</title><style>.edge>path:hover{stroke-width:8}</style>
<polygon fill="#5353b6" stroke="black" points="982.35,-711.92 979.35,-715.92 958.35,-715.92 955.35,-711.92 927.35,-711.92 927.35,-675.92 982.35,-675.92 982.35,-711.92"/>
<text xml:space="preserve" text-anchor="middle" x="954.85" y="-690.05" font-family="Helvetica,sans-Serif" font-size="10.00" fill="#ffffff">schedule</text>
</g>
<!-- schedule&#45;&gt;adw_triggers_trigger_cron -->
<g id="edge49" class="edge">
<title>schedule&#45;&gt;adw_triggers_trigger_cron</title><style>.edge>path:hover{stroke-width:8}</style>
<path fill="none" stroke="black" d="M955.93,-675.68C957.82,-645.77 961.74,-583.53 964.33,-542.37"/>
<polygon fill="#5353b6" stroke="black" points="967.81,-542.81 964.94,-532.61 960.82,-542.37 967.81,-542.81"/>
</g>
<!-- starlette -->
<g id="node34" class="node">
<title>starlette</title><style>.edge>path:hover{stroke-width:8}</style>
<polygon fill="#8510f9" stroke="black" points="547.85,-711.92 544.85,-715.92 523.85,-715.92 520.85,-711.92 493.85,-711.92 493.85,-675.92 547.85,-675.92 547.85,-711.92"/>
<text xml:space="preserve" text-anchor="middle" x="520.85" y="-690.05" font-family="Helvetica,sans-Serif" font-size="10.00" fill="#ffffff">starlette</text>
</g>
<!-- starlette&#45;&gt;fastapi -->
<g id="edge50" class="edge">
<title>starlette&#45;&gt;fastapi</title><style>.edge>path:hover{stroke-width:8}</style>
<path fill="none" stroke="black" d="M511.02,-675.5C504.98,-662.43 500.51,-645.83 512.85,-639.92"/>
</g>
<!-- uvicorn&#45;&gt;adw_triggers_adw_trigger_aea_server -->
<g id="edge51" class="edge">
<title>uvicorn&#45;&gt;adw_triggers_adw_trigger_aea_server</title><style>.edge>path:hover{stroke-width:8}</style>
<path fill="none" stroke="black" d="M908.3,-566.69C906.93,-530 902.66,-445.34 891.85,-418.88"/>
<path fill="none" stroke="black" d="M891.85,-416.88C882.32,-397.74 837.54,-376.21 797.18,-360.09"/>
<polygon fill="blue" stroke="black" points="798.49,-356.84 787.9,-356.45 795.94,-363.36 798.49,-356.84"/>
</g>
<!-- uvicorn&#45;&gt;adw_triggers_trigger_webhook -->
<g id="edge52" class="edge">
<title>uvicorn&#45;&gt;adw_triggers_trigger_webhook</title><style>.edge>path:hover{stroke-width:8}</style>
<path fill="none" stroke="black" d="M891.85,-416.88C886.53,-403.88 885.34,-388.71 885.87,-375.01"/>
<polygon fill="blue" stroke="black" points="889.33,-375.66 886.56,-365.43 882.35,-375.16 889.33,-375.66"/>
</g>
<!-- yaml -->
<g id="node36" class="node">
<title>yaml</title><style>.edge>path:hover{stroke-width:8}</style>
<polygon fill="blue" stroke="black" points="475.85,-711.92 472.85,-715.92 451.85,-715.92 448.85,-711.92 421.85,-711.92 421.85,-675.92 475.85,-675.92 475.85,-711.92"/>
<text xml:space="preserve" text-anchor="middle" x="448.85" y="-690.05" font-family="Helvetica,sans-Serif" font-size="10.00" fill="white">yaml</text>
</g>
<!-- yaml&#45;&gt;adw_core_config -->
<g id="edge53" class="edge">
<title>yaml&#45;&gt;adw_core_config</title><style>.edge>path:hover{stroke-width:8}</style>
<path fill="none" stroke="black" d="M453.91,-675.68C462.8,-645.45 481.39,-582.22 493.48,-541.07"/>
<polygon fill="blue" stroke="black" points="496.82,-542.13 496.28,-531.55 490.1,-540.16 496.82,-542.13"/>
</g>
<!-- yaml&#45;&gt;uvicorn -->
<g id="edge54" class="edge">
<title>yaml&#45;&gt;uvicorn</title><style>.edge>path:hover{stroke-width:8}</style>
<path fill="none" stroke="black" d="M476.09,-679.25C479.01,-678.03 481.96,-676.89 484.85,-675.92 635.51,-625.43 679.63,-636.94 834.85,-602.92 846.43,-600.38 859.02,-597.53 870.47,-594.89"/>
<polygon fill="blue" stroke="black" points="871.04,-598.36 879.99,-592.69 869.46,-591.54 871.04,-598.36"/>
</g>
</g>
</svg>
